PathFileType	4	(X/Y/Z)	D:\TRACE\spotREDO_2-26-24\spot_justBody_Motion_1_1-v60.trc
DataRate	CameraRate	NumFrames	NumMarkers	Units	OrigDataRate	OrigDataStartFrame	OrigNumFrames
100.00	100.00	      17	9	mm	100.00	1751	      7000
Frame#	Time	front left toe			Front right toe			aft left toe			aft right toe			Arm			FL body			FR body			AL Body			AR Body			
		X1	Y1	Z1	X2	Y2	Z2	X3	Y3	Z3	X4	Y4	Z4	X5	Y5	Z5	X6	Y6	Z6	X7	Y7	Z7	X8	Y8	Z8	X9	Y9	Z9	

1751	17.500	-287.17667	20.59130	-87.17522	149.11411	22.85563	-136.45387	-279.03143	18.41932	334.57013	220.17709	21.39347	322.48599	-84.74557	817.82593	-326.51117	-164.54466	557.27222	-298.84653	-9.56811	562.61969	-317.83829	-67.27242	549.11432	579.41516	80.31018	550.24725	563.95404	
1752	17.510	-287.17358	20.47475	-87.26185	149.02658	22.78017	-136.55586	-279.14038	18.62441	334.41650	220.13788	21.64654	322.35382	-85.78380	817.79352	-326.55963	-166.02638	557.65887	-299.79245	-10.27507	562.53088	-317.98010	-68.23624	549.31073	579.26025	79.40865	550.48212	563.85907	
1753	17.520	-287.26663	20.35808	-87.29310	148.90210	22.73671	-136.70984	-279.28220	18.89539	334.25919	220.04468	21.96969	322.24820	-86.74918	817.70593	-326.90759	-166.06418	557.21619	-299.20148	-10.96929	562.52167	-318.17340	-68.61196	549.29956	578.93811	78.72994	550.75848	563.68951	
1754	17.530	-287.44196	20.22258	-87.36226	148.80676	22.66115	-136.82870	-279.35217	19.07266	334.22992	219.99805	22.23578	322.20752	-87.44675	817.65747	-327.17181	-166.57791	556.91791	-299.23831	-11.85164	562.45837	-318.31055	-69.67461	549.70648	579.02118	77.83434	551.24231	563.58704	
1755	17.540	-287.60675	20.15273	-87.46690	148.71799	22.59316	-136.93280	-279.38925	19.28208	334.18372	219.92436	22.32049	322.10117	-88.24953	817.51404	-327.25821	-167.58702	556.89081	-299.48187	-12.31673	562.46246	-318.29251	-70.47550	550.07446	578.89240	77.20798	551.51300	563.46185	
1756	17.550	-287.68372	20.00375	-87.57238	148.67809	22.45906	-137.01387	-279.41196	19.41764	334.15643	219.81673	22.44744	321.93195	-88.80969	817.37274	-327.38409	-168.20573	556.80890	-299.62430	-13.04952	562.36334	-318.37698	-70.92461	550.23004	578.92096	76.80646	551.75006	563.33636	
1757	17.560	-287.73187	19.85630	-87.65027	148.62134	22.39213	-137.15227	-279.46014	19.44392	334.12158	219.77435	22.63302	321.81009	-89.66382	817.41949	-327.65692	-168.95750	556.85242	-299.70645	-13.68124	562.22693	-318.41519	-71.66044	550.48389	578.83344	76.06240	551.91791	563.28101	
1758	17.570	-287.67966	19.64753	-87.71620	148.59230	22.32258	-137.22427	-279.44794	19.53485	334.04117	219.70943	22.86363	321.72092	-90.31167	817.28522	-327.94284	-169.58379	556.86969	-299.75607	-14.49149	562.23987	-318.59680	-72.23661	550.69733	578.78540	75.20940	552.05273	563.11749	
1759	17.580	-287.65692	19.50893	-87.77195	148.55598	22.33774	-137.35535	-279.43674	19.61736	333.92865	219.52048	23.12573	321.64749	-90.80950	817.20404	-327.94138	-169.80669	556.60852	-299.82254	-15.01684	562.15729	-318.68820	-72.95540	550.97925	578.61523	74.58430	552.34479	563.04639	
1760	17.590	-287.64850	19.42834	-87.86205	148.53542	22.25388	-137.40735	-279.54102	19.83984	333.86661	219.49600	23.51000	321.51242	-91.32207	817.11395	-328.04724	-170.44807	556.46570	-299.94504	-15.59966	562.14600	-318.79306	-73.61752	551.17804	578.52484	74.07053	552.56842	562.93597	
1761	17.600	-287.65652	19.30518	-87.88713	148.57434	22.20107	-137.42171	-279.54691	20.04009	333.76462	219.47708	23.85525	321.35202	-91.98386	817.10297	-328.28165	-171.24008	556.44672	-300.19193	-16.05572	562.10553	-318.92969	-74.09534	551.41772	578.52209	73.51051	552.86188	562.87476	
1762	17.610	-287.69537	19.19562	-87.95559	148.63800	22.13706	-137.49490	-279.48215	20.18633	333.74146	219.52499	24.01433	321.30231	-92.50153	816.96454	-328.57178	-171.85495	556.53992	-300.24994	-16.39826	562.02014	-318.99600	-74.51770	551.68762	578.46307	73.01714	553.13135	562.73895	
1763	17.620	-287.66931	19.06875	-88.01485	148.66217	22.08838	-137.60182	-279.43893	20.27110	333.73187	219.51704	24.25922	321.04596	-93.07172	816.95477	-328.82349	-172.24242	556.50342	-300.36667	-17.28184	562.02936	-319.12039	-75.15914	551.96198	578.31110	72.30878	553.40314	562.62415	
1764	17.630	-287.51102	18.92186	-88.14515	148.77773	22.00788	-137.74513	-279.29184	20.35158	333.63904	219.64673	24.38004	320.98227	-93.38853	816.95313	-328.91125	-172.81572	556.53320	-300.36050	-17.75012	561.96655	-319.24606	-75.55412	552.15521	578.20642	71.96219	553.44385	562.55676	
1765	17.640	-287.29370	18.73090	-88.25542	149.00536	22.04058	-137.85669	-279.20459	20.61790	333.39139	219.85663	24.55136	320.88318	-93.69573	817.01819	-328.98700	-173.28307	556.55139	-300.46686	-18.12518	561.95679	-319.39914	-76.00641	552.39130	578.00171	71.56720	553.58655	562.47510	
1766	17.650	-287.08600	18.72158	-88.42419	149.25415	21.95543	-137.93951	-278.85388	20.85441	333.25784	219.98944	24.69207	320.81958	-93.97429	817.06415	-329.18311	-173.71199	556.67535	-300.74939	-18.62287	562.00714	-319.56128	-76.42124	552.54077	577.87109	71.09087	553.73151	562.35498	
1767	17.660	-286.95035	18.64942	-88.53091	149.58398	21.93272	-138.00487	-278.63757	21.02937	333.12329	220.14337	24.88119	320.73190	-94.18780	817.08545	-329.43332	-174.13422	556.80994	-300.87143	-19.02018	562.01666	-319.67365	-76.87711	552.81812	577.71185	70.65118	553.91241	562.15997	
